<svg viewBox="0 0 1132 804" xmlns:ev="http://www.w3.org/2001/xml-events" height="804" xmlns:xlink="http://www.w3.org/1999/xlink" width="1132" xmlns="http://www.w3.org/2000/svg"><style type="text/css"><![CDATA[
.st1 {fill:#303030;font-family:Arial;font-size:10pt}
]]></style><defs><linearGradient x1="0%" x2="0%" y2="100%" id="lg1" y1="0%"><stop stop-color="#fbfbfb" offset="0"/><stop stop-color="#efefef" offset="1"/></linearGradient></defs><g transform="translate(5,5)" id="page1"><rect fill="#ffffff" y="0" height="794" stroke="#808080" width="1123" x="0"/><g transform="translate(274,340)" id="shape1"><text class="st1"><tspan y="74.5" x="261">x</tspan></text></g><g transform="translate(250,222)" id="shape2"><path fill="#000000" d="M2,2L612,2L612,286L2,286L2,2z" fill-opacity="0.08"/><path fill="url(#lg1)" stroke="#6d6d6d" d="M0,0L610,0L610,284L0,284L0,0z"/><text class="st1"><tspan y="145.5" x="247">Произвести товара</tspan></text></g><g transform="translate(269,85)" id="shape3"><path fill="none" stroke="#6d6d6d" d="M0,0L286,0L286,132.6"/><path stroke-width="1" fill="#6d6d6d" stroke="#6d6d6d" d="M286,137L289,131.8C288.1,132.3,287.1,132.6,286,132.6C284.9,132.6,283.9,132.3,283,131.8L286,137" stroke-linecap="round"/><rect fill="#ffffff" y="-7.5" height="15" width="173.7" x="126.5"/><text class="st1"><tspan y="3.5" x="126.4">План производства изделий</tspan></text></g><g transform="translate(321,128)" id="shape4"><path fill="none" stroke="#6d6d6d" d="M0,0L234,0L234,89.6"/><path stroke-width="1" fill="#6d6d6d" stroke="#6d6d6d" d="M234,94L237,88.8C236.1,89.3,235.1,89.6,234,89.6C232.9,89.6,231.9,89.3,231,88.8L234,94" stroke-linecap="round"/><rect fill="#ffffff" y="-7.5" height="15" width="151.3" x="-54"/><text class="st1"><tspan y="3.5" x="-54.1">Производственный план</tspan></text></g><g transform="translate(350,184)" id="shape5"><path fill="none" stroke="#6d6d6d" d="M0,0L205,0L205,33.6"/><path stroke-width="1" fill="#6d6d6d" stroke="#6d6d6d" d="M205,38L208,32.8C207.1,33.3,206.1,33.6,205,33.6C203.9,33.6,202.9,33.3,202,32.8L205,38" stroke-linecap="round"/><rect fill="#ffffff" y="-7.5" height="15" width="152.3" x="-54.7"/><text class="st1"><tspan y="3.5" x="-54.8">Загруженность конвеера</tspan></text></g><g transform="translate(784,161)" id="shape6"><path fill="none" stroke="#6d6d6d" d="M0,0L-229,0L-229,56.6"/><path stroke-width="1" fill="#6d6d6d" stroke="#6d6d6d" d="M-229,61L-226,55.8C-226.9,56.3,-227.9,56.6,-229,56.6C-230.1,56.6,-231.1,56.3,-232,55.8L-229,61" stroke-linecap="round"/><rect fill="#ffffff" y="0" height="15" width="150.2" x="-218.5"/><text class="st1"><tspan y="11" x="-218.6">Методология испытания</tspan></text></g><g transform="translate(765,109)" id="shape7"><path fill="none" stroke="#6d6d6d" d="M0,0L-210,0L-210,108.6"/><path stroke-width="1" fill="#6d6d6d" stroke="#6d6d6d" d="M-210,113L-207,107.8C-207.9,108.3,-208.9,108.6,-210,108.6C-211.1,108.6,-212.1,108.3,-213,107.8L-210,113" stroke-linecap="round"/><rect fill="#ffffff" y="-7.5" height="15" width="159.4" x="-98"/><text class="st1"><tspan y="3.5" x="-98.1">Поставка комплектующих</tspan></text></g><g transform="translate(203,227)" id="shape8"><path fill="none" stroke="#6d6d6d" d="M0,0L0,137L42.6,137"/><path stroke-width="1" fill="#6d6d6d" stroke="#6d6d6d" d="M47,137L41.8,134C42.3,134.9,42.6,135.9,42.6,137C42.6,138.1,42.3,139.1,41.8,140L47,137" stroke-linecap="round"/><rect fill="#ffffff" y="84.5" height="15" width="100.2" x="-49"/><text class="st1"><tspan y="95.5" x="-49.1">Заказ от дилера</tspan></text></g><g transform="translate(170,501)" id="shape9"><path fill="none" stroke="#6d6d6d" d="M0,0L0,-137L75.6,-137"/><path stroke-width="1" fill="#6d6d6d" stroke="#6d6d6d" d="M80,-137L74.8,-140C75.3,-139.1,75.6,-138.1,75.6,-137C75.6,-135.9,75.3,-134.9,74.8,-134L80,-137" stroke-linecap="round"/><rect fill="#ffffff" y="-116" height="15" width="100.2" x="-49.3"/><text class="st1"><tspan y="-105" x="-49.4">Комплектующие</tspan></text></g><g transform="translate(860,364)" id="shape10"><path fill="none" stroke="#6d6d6d" d="M0,0L165,0L165,9.6"/><path stroke-width="1" fill="#6d6d6d" stroke="#6d6d6d" d="M165,14L168,8.8C167.1,9.3,166.1,9.6,165,9.6C163.9,9.6,162.9,9.3,162,8.8L165,14" stroke-linecap="round"/><rect fill="#ffffff" y="-7.5" height="15" width="102.2" x="39.5"/><text class="st1"><tspan y="3.5" x="39.4">Готовый продукт</tspan></text></g><g transform="translate(359,591)" id="shape11"><path fill="none" stroke="#6d6d6d" d="M0,0L196,0L196,-80.6"/><path stroke-width="1" fill="#6d6d6d" stroke="#6d6d6d" d="M196,-85L193,-79.8C193.9,-80.3,194.9,-80.6,196,-80.6C197.1,-80.6,198.1,-80.3,199,-79.8L196,-85" stroke-linecap="round"/><rect fill="#ffffff" y="-7.5" height="15" width="124.7" x="28.8"/><text class="st1"><tspan y="3.5" x="28.7">Конвейерная линия </tspan></text></g><g transform="translate(718,652)" id="shape12"><path fill="none" stroke="#6d6d6d" d="M0,0L-163,0L-163,-141.6"/><path stroke-width="1" fill="#6d6d6d" stroke="#6d6d6d" d="M-163,-146L-166,-140.8C-165.1,-141.3,-164.1,-141.6,-163,-141.6C-161.9,-141.6,-160.9,-141.3,-160,-140.8L-163,-146" stroke-linecap="round"/><rect fill="#ffffff" y="-7.5" height="15" width="115.5" x="-76.6"/><text class="st1"><tspan y="3.5" x="-76.7">Контроль качества</tspan></text></g></g></svg>