<svg height="804" width="1132" xmlns:xlink="http://www.w3.org/1999/xlink" xmlns:ev="http://www.w3.org/2001/xml-events" viewBox="0 0 1132 804" xmlns="http://www.w3.org/2000/svg"><style type="text/css"><![CDATA[
.st1 {fill:#303030;font-family:Arial;font-size:10pt}
]]></style><defs><linearGradient y1="0%" y2="100%" x1="0%" x2="0%" id="lg1"><stop offset="0" stop-color="#fbfcfa"/><stop offset="1" stop-color="#eff3ea"/></linearGradient><linearGradient y1="0%" y2="100%" x1="0%" x2="0%" id="lg2"><stop offset="0" stop-color="#fbfbfb"/><stop offset="1" stop-color="#efefef"/></linearGradient></defs><g transform="translate(5,5)" id="page1"><rect x="0" height="794" stroke="#808080" width="1123" fill="#ffffff" y="0"/><g transform="translate(162.26,155.85)" id="shape1"><path fill="#000000" fill-opacity="0.08" d="M2,2L208.7,2L208.7,106.1L2,106.1L2,2z"/><path stroke="#71893f" fill="url(#lg1)" d="M0,0L206.7,0L206.7,104.1L0,104.1L0,0z"/><text class="st1"><tspan x="20.4" y="48.1">Создать производственный </tspan><tspan x="89.4" y="63.1">план</tspan></text></g><g transform="translate(444.5,307)" id="shape2"><path fill="#000000" fill-opacity="0.08" d="M2,2L257,2L257,144L2,144L2,2z"/><path stroke="#6d6d6d" fill="url(#lg2)" d="M0,0L255,0L255,142L0,142L0,0z"/><text class="st1"><tspan x="77" y="74.5">Создать продукт</tspan></text></g><g transform="translate(775,534)" id="shape3"><path fill="#000000" fill-opacity="0.08" d="M2,2L158,2L158,101L2,101L2,2z"/><path stroke="#6d6d6d" fill="url(#lg2)" d="M0,0L156,0L156,99L0,99L0,0z"/><text class="st1"><tspan x="17" y="53">Проверить качество</tspan></text></g><g transform="translate(113,99)" id="shape4"><path stroke="#6d6d6d" fill="none" d="M0,0L152.3,0L152.3,52.5"/><path stroke="#6d6d6d" stroke-linecap="round" fill="#6d6d6d" d="M152.3,56.9L155.3,51.7C154.4,52.2,153.4,52.5,152.3,52.5C151.2,52.5,150.1,52.2,149.3,51.7L152.3,56.9" stroke-width="1"/><rect x="-54.7" height="15" width="152.3" fill="#ffffff" y="-7.5"/><text class="st1"><tspan x="-54.8" y="3.5">Загруженность конвеера</tspan></text></g><g transform="translate(435,109)" id="shape5"><path stroke="#6d6d6d" fill="none" d="M0,0L-169.7,0L-169.7,42.5"/><path stroke="#6d6d6d" stroke-linecap="round" fill="#6d6d6d" d="M-169.7,46.9L-166.7,41.7C-167.6,42.2,-168.6,42.5,-169.7,42.5C-170.8,42.5,-171.9,42.2,-172.7,41.7L-169.7,46.9" stroke-width="1"/><rect x="-132.2" height="15" width="192.1" fill="#ffffff" y="-7.5"/><text class="st1"><tspan x="-132.3" y="3.5">План поставки комплектующих</tspan></text></g><g transform="translate(80,217)" id="shape6"><path stroke="#6d6d6d" fill="none" d="M0,0L0,-9.1L77.9,-9.1"/><path stroke="#6d6d6d" stroke-linecap="round" fill="#6d6d6d" d="M82.3,-9.1L77.1,-12.1C77.6,-11.2,77.9,-10.2,77.9,-9.1C77.9,-8,77.6,-7,77.1,-6.1L82.3,-9.1" stroke-width="1"/><rect x="-6" height="15" width="34.7" fill="#ffffff" y="-16.6"/><text class="st1"><tspan x="-6.1" y="-5.6">Заказ</tspan></text></g><g transform="translate(369.26,207.93)" id="shape7"><path stroke="#6d6d6d" fill="none" d="M0,0L43.2,0L43.2,170.1L70.8,170.1"/><path stroke="#6d6d6d" stroke-linecap="round" fill="#6d6d6d" d="M75.2,170.1L70,167.1C70.6,168,70.8,169,70.8,170.1C70.8,171.2,70.6,172.2,70,173.1L75.2,170.1" stroke-width="1"/><rect x="-30.8" height="15" width="151.3" fill="#ffffff" y="71.9"/><text class="st1"><tspan x="-30.9" y="82.9">Производственный план</tspan></text></g><g transform="translate(132,340)" id="shape8"><path stroke="#6d6d6d" fill="none" d="M0,0L133.3,0L133.3,-75.8"/><path stroke="#6d6d6d" stroke-linecap="round" fill="#6d6d6d" d="M133.3,-80.1L130.3,-75C131.1,-75.5,132.2,-75.8,133.3,-75.8C134.4,-75.8,135.4,-75.5,136.3,-75L133.3,-80.1" stroke-width="1"/><rect x="-43.5" height="15" width="129.8" fill="#ffffff" y="-7.5"/><text class="st1"><tspan x="-43.6" y="3.5">Отдел планирования</tspan></text></g><g transform="translate(213,586)" id="shape9"><path stroke="#6d6d6d" fill="none" d="M0,0L0,-208L227.1,-208"/><path stroke="#6d6d6d" stroke-linecap="round" fill="#6d6d6d" d="M231.5,-208L226.3,-211C226.8,-210.1,227.1,-209.1,227.1,-208C227.1,-206.9,226.8,-205.9,226.3,-205L231.5,-208" stroke-width="1"/><rect x="-49.3" height="15" width="100.2" fill="#ffffff" y="-27.5"/><text class="st1"><tspan x="-49.4" y="-16.5">Комплектующие</tspan></text></g><g transform="translate(572.5,553)" id="shape10"><path stroke="#6d6d6d" fill="none" d="M0,0L0,-99.6"/><path stroke="#6d6d6d" stroke-linecap="round" fill="#6d6d6d" d="M0,-104L-3,-98.8C-2.1,-99.3,-1.1,-99.6,0,-99.6C1.1,-99.6,2.1,-99.3,3,-98.8L0,-104" stroke-width="1"/><rect x="-25.1" height="15" width="51.1" fill="#ffffff" y="-67"/><text class="st1"><tspan x="-25.2" y="-56">Конвеер</tspan></text></g><g transform="translate(699.5,378)" id="shape11"><path stroke="#6d6d6d" fill="none" d="M0,0L43.5,0L43.5,206L71.1,206"/><path stroke="#6d6d6d" stroke-linecap="round" fill="#6d6d6d" d="M75.5,206L70.3,203C70.8,203.9,71.1,204.9,71.1,206C71.1,207.1,70.8,208.1,70.3,209L75.5,206" stroke-width="1"/><rect x="-28.9" height="15" width="148.2" fill="#ffffff" y="89.8"/><text class="st1"><tspan x="-29" y="100.8">Собранный автомобиль</tspan></text></g><g transform="translate(860,383)" id="shape12"><path stroke="#6d6d6d" fill="none" d="M0,0L-7,0L-7,146.6"/><path stroke="#6d6d6d" stroke-linecap="round" fill="#6d6d6d" d="M-7,151L-4,145.8C-4.9,146.3,-5.9,146.6,-7,146.6C-8.1,146.6,-9.1,146.3,-10,145.8L-7,151" stroke-width="1"/><rect x="-118.1" height="15" width="226.9" fill="#ffffff" y="123.5"/><text class="st1"><tspan x="-118.2" y="134.5">Методология проведения испытаний</tspan></text></g><g transform="translate(853,713)" id="shape13"><path stroke="#6d6d6d" fill="none" d="M0,0L0,-75.6"/><path stroke="#6d6d6d" stroke-linecap="round" fill="#6d6d6d" d="M0,-80L-3,-74.8C-2.1,-75.3,-1.1,-75.6,0,-75.6C1.1,-75.6,2.1,-75.3,3,-74.8L0,-80" stroke-width="1"/><rect x="-80.9" height="15" width="164.5" fill="#ffffff" y="-47.5"/><text class="st1"><tspan x="-81" y="-36.5">Отдел контроля качеством</tspan></text></g><g transform="translate(581,213)" id="shape14"><path stroke="#6d6d6d" fill="none" d="M0,0L-8.5,0L-8.5,89.6"/><path stroke="#6d6d6d" stroke-linecap="round" fill="#6d6d6d" d="M-8.5,94L-5.5,88.8C-6.4,89.3,-7.4,89.6,-8.5,89.6C-9.6,89.6,-10.6,89.3,-11.5,88.8L-8.5,94" stroke-width="1"/><rect x="-93.5" height="15" width="173.7" fill="#ffffff" y="4"/><text class="st1"><tspan x="-93.6" y="15">План производства изделий</tspan></text></g><g transform="translate(931,584)" id="shape15"><path stroke="#6d6d6d" fill="none" d="M0,0L123,0L123,30.6"/><path stroke="#6d6d6d" stroke-linecap="round" fill="#6d6d6d" d="M123,35L126,29.8C125.1,30.3,124.1,30.6,123,30.6C121.9,30.6,120.9,30.3,120,29.8L123,35" stroke-width="1"/><rect x="29" height="15" width="102.2" fill="#ffffff" y="-7.5"/><text class="st1"><tspan x="28.9" y="3.5">Готовый продукт</tspan></text></g></g></svg>