<svg height="1133" width="1597" xmlns:xlink="http://www.w3.org/1999/xlink" xmlns:ev="http://www.w3.org/2001/xml-events" viewBox="0 0 1597 1133" xmlns="http://www.w3.org/2000/svg"><style type="text/css"><![CDATA[
.st1 {fill:#303030;font-family:Arial;font-size:10pt}
]]></style><defs><linearGradient y1="-194" y2="382" x1="194" gradientUnits="userSpaceOnUse" x2="770" id="lg1"><stop offset="0" stop-color="#f6f6f6"/><stop offset="1" stop-color="#ffffff"/></linearGradient></defs><g transform="translate(5,5)" id="page1"><rect x="0" height="1123" stroke="#808080" width="1587" fill="#ffffff" y="0"/><g transform="translate(311.7,211.26)"><g><path stroke="#404040" fill="none" d="M0,0L964,0L964,188L0,188L0,0z" stroke-width="0.25" id="shape1"/><path stroke="#404040" fill="url(#lg1)" d="M0,0L964,0L964,188L0,188L0,0z" stroke-width="0.25" id="shape2"/><g transform="matrix(0,-1,1,0,0,188)" id="shape3"><path stroke="#404040" fill="#ffffff" d="M0,0L188,0L188,56.7L0,56.7L0,0z"/><text class="st1"><tspan x="50" y="31.8">Планирование</tspan></text></g></g><g transform="translate(0,188)"><path stroke="#404040" fill="none" d="M0,0L964,0L964,188L0,188L0,0z" stroke-width="0.25" id="shape4"/><path stroke="#404040" fill="url(#lg1)" d="M0,0L964,0L964,188L0,188L0,0z" stroke-width="0.25" id="shape5"/><g transform="matrix(0,-1,1,0,0,188)" id="shape6"><path stroke="#404040" fill="#ffffff" d="M0,0L188,0L188,56.7L0,56.7L0,0z"/><text class="st1"><tspan x="52" y="31.8">Производство</tspan></text></g></g><g transform="translate(0,376)"><path stroke="#404040" fill="none" d="M0,0L964,0L964,188L0,188L0,0z" stroke-width="0.25" id="shape7"/><path stroke="#404040" fill="url(#lg1)" d="M0,0L964,0L964,188L0,188L0,0z" stroke-width="0.25" id="shape8"/><g transform="matrix(0,-1,1,0,0,188)" id="shape9"><path stroke="#404040" fill="#ffffff" d="M0,0L188,0L188,56.7L0,56.7L0,0z"/><text class="st1"><tspan x="72" y="31.8">Ремонт</tspan></text></g></g><g transform="translate(0,564)"><path stroke="#404040" fill="none" d="M0,0L964,0L964,188L0,188L0,0z" stroke-width="0.25" id="shape10"/><path stroke="#404040" fill="url(#lg1)" d="M0,0L964,0L964,188L0,188L0,0z" stroke-width="0.25" id="shape11"/><g transform="matrix(0,-1,1,0,0,188)" id="shape12"><path stroke="#404040" fill="#ffffff" d="M0,0L188,0L188,56.7L0,56.7L0,0z"/><text class="st1"><tspan x="61" y="31.8">Испытания</tspan></text></g></g></g><g transform="translate(523.7,269.26)"><path stroke="#868686" fill="#ffffff" d="M38,19C38,29.5,29.5,38,19,38C8.5,38,0,29.5,0,19C0,8.5,8.5,0,19,0C29.5,0,38,8.5,38,19z" id="shape13"/><text class="st1"><tspan x="2" y="53.5">Заказ</tspan></text></g><g transform="translate(722.96,248.26)"><g><path stroke="#404040" fill="#ffffff" d="M110,80C115.5,80,120,75.5,120,70L120,10C120,4.5,115.5,0,110,0L10,0C4.5,0,0,4.5,0,10L0,70C0,75.5,4.5,80,10,80L110,80z" id="shape14"/></g><g transform="translate(5,3)"/><g transform="translate(62,63)"/><text class="st1"><tspan x="5" y="36">Разработка плана </tspan><tspan x="19" y="51">производства</tspan></text></g><g transform="translate(1024.7,248.26)"><g><path stroke="#404040" fill="#ffffff" d="M110,80C115.5,80,120,75.5,120,70L120,10C120,4.5,115.5,0,110,0L10,0C4.5,0,0,4.5,0,10L0,70C0,75.5,4.5,80,10,80L110,80z" id="shape15"/></g><g transform="translate(5,3)"/><g transform="translate(62,63)"/><text class="st1"><tspan x="10" y="43.5">Передача плана</tspan></text></g><g transform="translate(441.7,442.26)"><g><path stroke="#404040" fill="#ffffff" d="M110,80C115.5,80,120,75.5,120,70L120,10C120,4.5,115.5,0,110,0L10,0C4.5,0,0,4.5,0,10L0,70C0,75.5,4.5,80,10,80L110,80z" id="shape16"/></g><g transform="translate(5,3)"/><g transform="translate(62,63)"/><text class="st1"><tspan x="42" y="36">Старт </tspan><tspan x="19" y="51">производства</tspan></text></g><g transform="translate(646.7,418.26)"><g><path stroke="#404040" fill="#ffffff" d="M110,80C115.5,80,120,75.5,120,70L120,10C120,4.5,115.5,0,110,0L10,0C4.5,0,0,4.5,0,10L0,70C0,75.5,4.5,80,10,80L110,80z" id="shape17"/></g><g transform="translate(5,3)"/><g transform="translate(62,63)"/><text class="st1"><tspan x="16" y="43.5">Сборка кузова</tspan></text></g><g transform="translate(868.7,418.26)"><g><path stroke="#404040" fill="#ffffff" d="M110,80C115.5,80,120,75.5,120,70L120,10C120,4.5,115.5,0,110,0L10,0C4.5,0,0,4.5,0,10L0,70C0,75.5,4.5,80,10,80L110,80z" id="shape18"/></g><g transform="translate(5,3)"/><g transform="translate(62,63)"/><text class="st1"><tspan x="32" y="43.5">Покраска</tspan></text></g><g transform="translate(1078.7,418.26)"><g><path stroke="#404040" fill="#ffffff" d="M110,80C115.5,80,120,75.5,120,70L120,10C120,4.5,115.5,0,110,0L10,0C4.5,0,0,4.5,0,10L0,70C0,75.5,4.5,80,10,80L110,80z" id="shape19"/></g><g transform="translate(5,3)"/><g transform="translate(62,63)"/><text class="st1"><tspan x="15" y="43.5">Полная сборка</tspan></text></g><g transform="translate(441.7,657.26)"><g><path stroke="#404040" fill="#ffffff" d="M110,80C115.5,80,120,75.5,120,70L120,10C120,4.5,115.5,0,110,0L10,0C4.5,0,0,4.5,0,10L0,70C0,75.5,4.5,80,10,80L110,80z" id="shape20"/></g><g transform="translate(5,3)"/><g transform="translate(62,63)"/><text class="st1"><tspan x="38" y="43.5">Ремонт</tspan></text></g><g transform="translate(701.7,657.26)"><g><path stroke="#404040" fill="#ffffff" d="M110,80C115.5,80,120,75.5,120,70L120,10C120,4.5,115.5,0,110,0L10,0C4.5,0,0,4.5,0,10L0,70C0,75.5,4.5,80,10,80L110,80z" id="shape21"/></g><g transform="translate(5,3)"/><g transform="translate(62,63)"/><text class="st1"><tspan x="30" y="36">Возврат в </tspan><tspan x="19" y="51">производство</tspan></text></g><g transform="translate(441.7,822.26)"><g><path stroke="#404040" fill="#ffffff" d="M110,80C115.5,80,120,75.5,120,70L120,10C120,4.5,115.5,0,110,0L10,0C4.5,0,0,4.5,0,10L0,70C0,75.5,4.5,80,10,80L110,80z" id="shape22"/></g><g transform="translate(5,3)"/><g transform="translate(62,63)"/><text class="st1"><tspan x="8" y="43.5">Старт испытаний</tspan></text></g><g transform="translate(701.7,822.26)"><g><path stroke="#404040" fill="#ffffff" d="M110,80C115.5,80,120,75.5,120,70L120,10C120,4.5,115.5,0,110,0L10,0C4.5,0,0,4.5,0,10L0,70C0,75.5,4.5,80,10,80L110,80z" id="shape23"/></g><g transform="translate(5,3)"/><g transform="translate(62,63)"/><text class="st1"><tspan x="23" y="36">Проведение </tspan><tspan x="28" y="51">испытаний</tspan></text></g><g transform="translate(961.7,832.26)"><path stroke="#860607" fill="#ffffff" d="M0,30L30,0L60,30L30,60L0,30z" id="shape24"/></g><g transform="translate(1194.7,843.26)"><path stroke="#000000" fill="#000000" d="M38,19C38,29.5,29.5,38,19,38C8.5,38,0,29.5,0,19C0,8.5,8.5,0,19,0C29.5,0,38,8.5,38,19z" id="shape25"/><path stroke="#866310" fill="#ffffff" transform="translate(2.66,2.66)" d="M32.7,16.3C32.7,25.4,25.4,32.7,16.3,32.7C7.3,32.7,-0,25.4,-0,16.3C-0,7.3,7.3,-0,16.3,-0C25.4,-0,32.7,7.3,32.7,16.3z" id="shape26"/><text class="st1"><tspan x="-27.1" y="53.5">Машина готова</tspan></text></g><g transform="translate(910.7,159.26)"><g id="shape27"><path fill="#ffffff" d="M0,7.8L0,48.2C0,52.5,17.5,56,39,56C60.5,56,78,52.5,78,48.2L78,7.8C78,3.5,60.5,-0,39,-0C17.5,-0,0,3.5,0,7.8z"/><path stroke="#005a7d" fill="none" d="M0,7.8L0,48.2C0,52.5,17.5,56,39,56C60.5,56,78,52.5,78,48.2L78,7.8C78,3.5,60.5,-0,39,-0C17.5,-0,0,3.5,0,7.8zM0,7.8C0,12.1,17.5,15.6,39,15.6C60.5,15.6,78,12.1,78,7.8M0,11.7C0,16,17.5,19.5,39,19.5C60.5,19.5,78,16,78,11.7M0,15.6C0,19.9,17.5,23.4,39,23.4C60.5,23.4,78,19.9,78,15.6"/></g><path stroke="#ffffff" fill="none" d="M0,7.8C0,12.1,17.5,15.6,39,15.6C60.5,15.6,78,12.1,78,7.8M0,11.7C0,16,17.5,19.5,39,19.5C60.5,19.5,78,16,78,11.7M0,15.6C0,19.9,17.5,23.4,39,23.4C60.5,23.4,78,19.9,78,15.6" id="shape28"/><text class="st1"><tspan x="-5.2" y="71.5">План поставок</tspan></text></g><g transform="translate(601.7,159.26)"><g id="shape29"><path fill="#ffffff" d="M0,7.8L0,48.2C0,52.5,17.5,56,39,56C60.5,56,78,52.5,78,48.2L78,7.8C78,3.5,60.5,-0,39,-0C17.5,-0,0,3.5,0,7.8z"/><path stroke="#005a7d" fill="none" d="M0,7.8L0,48.2C0,52.5,17.5,56,39,56C60.5,56,78,52.5,78,48.2L78,7.8C78,3.5,60.5,-0,39,-0C17.5,-0,0,3.5,0,7.8zM0,7.8C0,12.1,17.5,15.6,39,15.6C60.5,15.6,78,12.1,78,7.8M0,11.7C0,16,17.5,19.5,39,19.5C60.5,19.5,78,16,78,11.7M0,15.6C0,19.9,17.5,23.4,39,23.4C60.5,23.4,78,19.9,78,15.6"/></g><path stroke="#ffffff" fill="none" d="M0,7.8C0,12.1,17.5,15.6,39,15.6C60.5,15.6,78,12.1,78,7.8M0,11.7C0,16,17.5,19.5,39,19.5C60.5,19.5,78,16,78,11.7M0,15.6C0,19.9,17.5,23.4,39,23.4C60.5,23.4,78,19.9,78,15.6" id="shape30"/><text class="st1"><tspan x="-19.5" y="71.5">Состояни конвеера</tspan></text></g><path stroke="#000000" fill="none" transform="translate(561.7,288.26)" d="M0,0L161.3,0" id="shape31"/><path stroke="#000000" fill="none" transform="translate(842.96,288.26)" d="M0,0L181.7,0" id="shape32"/><path stroke="#000000" fill="none" transform="translate(640.7,215.26)" d="M0,0L0,28L112.3,28L112.3,33" id="shape33"/><path stroke="#000000" fill="none" transform="translate(949.7,215.26)" d="M0,0L0,28L-136.7,28L-136.7,33" id="shape34"/><path stroke="#000000" fill="none" transform="translate(561.7,482.26)" d="M0,0L53,0L53,-24L85,-24" id="shape35"/><path stroke="#000000" fill="none" transform="translate(766.7,458.26)" d="M0,0L102,0" id="shape36"/><path stroke="#000000" fill="none" transform="translate(988.7,458.26)" d="M0,0L90,0" id="shape37"/><path stroke="#000000" fill="none" transform="translate(676.7,498.26)" d="M0,0L0,44L96,44" id="shape38"/><path stroke="#000000" fill="none" transform="translate(928.7,498.26)" d="M0,0L0,6L-126,6L-126,14" id="shape39"/><path stroke="#000000" fill="none" transform="translate(1078.7,458.26)" d="M0,0L-58,0L-58,46L-276,46L-276,54" id="shape40"/><g transform="translate(802.7,572.26)" id="shape41"><path stroke="#000000" fill="none" d="M0,0L0,53L-301,53L-301,85"/><rect x="-359.3" height="15" width="118.6" fill="#ffffff" y="57.5"/><text class="st1"><tspan x="-359.4" y="68.5">Обнаружен дефект</tspan></text></g><path stroke="#000000" fill="none" transform="translate(561.7,697.26)" d="M0,0L140,0" id="shape42"/><path stroke="#000000" fill="none" transform="translate(561.7,862.26)" d="M0,0L140,0" id="shape43"/><path stroke="#000000" fill="none" transform="translate(821.7,862.26)" d="M0,0L140,0" id="shape44"/><g transform="translate(1021.7,862.26)" id="shape45"><path stroke="#000000" fill="none" d="M0,0L173,0"/><rect x="22.9" height="15" width="132.9" fill="#ffffff" y="-7.5"/><text class="st1"><tspan x="22.8" y="3.5">Испытания пройдены</tspan></text></g><g transform="translate(991.7,832.26)" id="shape46"><path stroke="#000000" fill="none" d="M0,0L0,-63L-490,-63L-490,-95"/><rect x="-22.7" height="15" width="46" fill="#ffffff" y="-27.5"/><text class="st1"><tspan x="-22.9" y="-16.5">Дефект</tspan></text></g><path stroke="#000000" fill="none" transform="translate(1084.7,328.26)" d="M0,0L0,58L-583,58L-583,114" id="shape47"/><g transform="translate(772.7,512.26)"><path stroke="#860607" fill="#ffffff" d="M0,30L30,0L60,30L30,60L0,30z" id="shape48"/></g><path stroke="#000000" fill="none" transform="translate(832.7,542.26)" d="M0,0L97,0L97,14L129,14" id="shape49"/><g transform="translate(961.7,524.26)"><g><path stroke="#404040" fill="#ffffff" d="M86,64C91.5,64,96,59.5,96,54L96,10C96,4.5,91.5,0,86,0L10,0C4.5,0,0,4.5,0,10L0,54C0,59.5,4.5,64,10,64L86,64z" id="shape50"/></g><g transform="translate(5,3)"/><g transform="translate(50,47)"/><text class="st1"><tspan x="8" y="28">Отправление </tspan><tspan x="7" y="43">на испытания</tspan></text></g><g transform="translate(1117.7,537.26)"><path stroke="#868686" fill="#ffffff" d="M38,19C38,29.5,29.5,38,19,38C8.5,38,0,29.5,0,19C0,8.5,8.5,0,19,0C29.5,0,38,8.5,38,19z" id="shape51"/><g transform="translate(7.6,11.4)"><path stroke="#000000" fill="#ffffff" d="M0,15.2L22.8,15.2L22.8,0L0,0L0,15.2z" id="shape52"/><path stroke="#000000" fill="none" d="M0,0L11.4,6.1L22.8,0" id="shape53"/></g><path stroke-dasharray="6,4" stroke="#000000" fill="none" d="M38,19C38,29.5,29.5,38,19,38C8.5,38,0,29.5,0,19C0,8.5,8.5,0,19,0C29.5,0,38,8.5,38,19z" id="shape54"/></g><path stroke="#000000" fill="none" transform="translate(1057.7,556.26)" d="M0,0L60,0" id="shape55"/><g transform="translate(441.7,822.26)"><path stroke="#000000" fill="#000000" d="M38,19C38,29.5,29.5,38,19,38C8.5,38,0,29.5,0,19C0,8.5,8.5,0,19,0C29.5,0,38,8.5,38,19z" id="shape56"/><path stroke="#866310" fill="#ffffff" transform="translate(2.66,2.66)" d="M32.7,16.3C32.7,25.4,25.4,32.7,16.3,32.7C7.3,32.7,-0,25.4,-0,16.3C-0,7.3,7.3,-0,16.3,-0C25.4,-0,32.7,7.3,32.7,16.3z" id="shape57"/><g transform="translate(7.6,11.5)"><path stroke="#000000" fill="#000000" d="M0,15.2L22.8,15.2L22.8,0L0,0L0,15.2z" id="shape58"/><path stroke="#ffffff" fill="none" d="M0,0L11.4,6.1L22.8,0" id="shape59"/></g></g><g transform="translate(783.7,657.26)"><path stroke="#868686" fill="#ffffff" d="M38,19C38,29.5,29.5,38,19,38C8.5,38,0,29.5,0,19C0,8.5,8.5,0,19,0C29.5,0,38,8.5,38,19z" id="shape60"/><g transform="translate(7.6,11.4)"><path stroke="#000000" fill="#ffffff" d="M0,15.2L22.8,15.2L22.8,0L0,0L0,15.2z" id="shape61"/><path stroke="#000000" fill="none" d="M0,0L11.4,6.1L22.8,0" id="shape62"/></g><path stroke-dasharray="6,4" stroke="#000000" fill="none" d="M38,19C38,29.5,29.5,38,19,38C8.5,38,0,29.5,0,19C0,8.5,8.5,0,19,0C29.5,0,38,8.5,38,19z" id="shape63"/></g></g></svg>