<svg height="804" width="1132" xmlns:xlink="http://www.w3.org/1999/xlink" xmlns:ev="http://www.w3.org/2001/xml-events" viewBox="0 0 1132 804" xmlns="http://www.w3.org/2000/svg"><style type="text/css"><![CDATA[
.st1 {fill:#303030;font-family:Arial;font-size:10pt}
.st2 {font-family:Sans Serif;font-size:9pt}
]]></style><defs/><g transform="translate(5,5)" id="page1"><rect x="0" height="794" stroke="#808080" width="1123" fill="#ffffff" y="0"/><g transform="translate(902,331)"><path fill="#000000" fill-opacity="0.08" d="M2,2L116,2L116,134L2,134L2,2z"/><path fill="#eac3aa" transform="translate(41.69,70.97)" d="M.5,.1C.5,.1,.7,1.3,0,2.6C0,2.6,2.9,17.6,16.2,17.6C16.2,17.6,27.9,14.3,30.2,2.6C30.2,2.6,29.9,1,29.9,0C29.9,0,16.4,13.1,.5,.1z" id="shape1"/><path fill="#7f746d" transform="translate(0,73.52)" d="M113.8,58.5C114.8,38.6,111.6,27,111.6,27C109.2,17.1,100.4,13.6,100.4,13.6C100.4,13.6,100.1,13.6,96.4,12C92.7,10.4,77.8,4.6,77.8,4.6C75.7,2.4,71.9,0,71.9,0C71,6.5,57.9,14.9,57.9,14.9C46.7,12,41.7,0,41.7,0C39.2,2.8,36.8,3.3,36.8,3.3C36.8,3.3,31.6,6.5,26.5,8.6C21.4,10.6,8.9,13.9,4.6,21.7C.2,29.5,0,58.5,0,58.5L113.8,58.5z" id="shape2"/><path fill="#ffffff" transform="translate(18.67,115.35)" fill-opacity="0.11" d="M0,0L19.4,0L19.4,2.6L0,2.6L0,0z" id="shape3"/><path stroke="#ffffff" fill="#ffffff" transform="translate(44.21,88.6)" d="M13.7,0L0,10.2L13.5,43.3L26.8,11.1L13.7,0z" id="shape4"/><path stroke="#eeeeee" fill="#eeeeee" transform="translate(37.46,73.52)" d="M33.4,26.8L39.1,3.7C37.1,1.9,34.4,0,34.4,0C33.4,6.5,20.4,14.9,20.4,14.9C9.1,12,4.1,0,4.1,0C1.2,2.4,0,3.3,0,3.3L7,27.1L20.3,15.1L33.4,26.8z" id="shape5"/><path stroke="#c2bba9" fill="#c2bba9" transform="translate(25.33,76.58)" d="M12.1,0L32.4,54.3L51.3,.7L64.9,18.1L32.6,54.7L0,18.1L12.1,0z" id="shape6"/><path fill="#fad1b6" transform="translate(26.54,5.45)" d="M31.1,74.6C31.1,74.6,22.3,73,15.6,65.6C9,58.2,8.2,51,8.2,51C8.2,51,4.7,51.3,3.5,47.8C2.3,44.3,-2.6,37.6,1.8,35.5C1.8,35.5,4.6,34.4,5.6,36.6C6.6,38.7,7.4,43.1,7.8,43.6C8.1,44.2,7.4,39.1,9,35.2C9,35.2,13.5,30,10.3,19.1C7.1,8.2,19.3,0,31.7,0C44.1,0,51.6,10.2,51.2,15.5C50.7,20.8,50.5,25.4,52.6,30C54.6,34.5,52.4,40.7,51.3,43.6C50.3,46.4,54.2,39.1,55.1,36.9C56.1,34.8,59.2,33.6,60,37.2C60,40.6,57.1,47.9,56,49.2C54.9,50.5,53.1,52.4,51.8,51.2C51.8,51.2,50.8,59.1,44.7,66.2C38.5,73.2,33.4,74.4,31.1,74.6z" id="shape7"/><path stroke="#000000" fill="#000000" transform="translate(52.23,88.6)" d="M11.6,20.2L5.5,43.3L.5,20.2L4.6,12.1C4.4,12.1,0,7.7,0,5.5C0,3.4,5.7,0,5.7,0C5.7,0,11.3,3.7,11.4,5.4C11.5,6.9,8.1,11.1,7.4,11.9L11.6,20.2z" id="shape8"/><path stroke="#eeeeee" fill="#eeeeee" transform="translate(29.54,0)" d="M1.3,40.6C1.3,40.6,-2.2,22.9,2.4,14.8C6.9,6.6,14.6,0,28.3,0C42.1,0,50.6,8.5,53,14.8C55.1,20.3,56.5,30.3,55.6,37.3C55.5,38.3,56,40.2,55.1,40.2C52.5,40.2,45.8,56,48.5,48.7C51.2,41.3,49.4,34.8,47.9,29.6C46.5,24.3,49.7,21.6,47.3,16.7C44.2,10.6,39.2,5.8,28.4,5.7C10.1,5.6,6.6,18.2,6.6,21.2C6.6,24.1,11.3,32.4,7.1,39.1C3,45.8,5.6,51.2,4.8,49.1C3.9,47,3.2,40.8,1.3,40.6zM23.2,70.7C24.1,69.6,23.5,67.3,28.2,67.3C32.9,67.3,31.3,68.7,34.2,71.1C37.2,73.4,39.4,70.3,39.4,70.3C37.4,70.1,36.7,64.7,33.7,63.6C30.7,62.6,28.3,64.5,28.3,64.5C25.3,62,21.4,64.1,20.5,66.6C19.6,69.1,17.6,70.6,17.4,70.8C19.7,73.3,22.4,71.8,23.2,70.7z" id="shape9"/></g><g transform="translate(902,553)"><path fill="#000000" fill-opacity="0.08" d="M2,2L108,2L108,134L2,134L2,2z"/><path stroke="#f99e1c" fill="#f99e1c" transform="translate(15.33,-0)" d="M11.7,91.8C11.7,91.8,-3.5,73.7,.8,43.8C.8,43.8,6.5,0,34.9,0C63.3,0,72.9,28.8,73.8,43.8C74.8,58.9,73.2,79.8,62.8,91.8L11.7,91.8z" id="shape10"/><path fill="#fad1b6" transform="translate(22.66,30.48)" d="M17.9,50.3L17.9,42.7C17.9,42.7,11.6,38,8.6,34.5C8.6,34.5,5.2,35,1.7,27.2C1.7,27.2,-2.9,15.8,3,15.1C3,15.1,31.4,15.9,46.4,0C46.4,0,53.2,15.2,57.3,15.1C57.3,15.1,59.8,14,60.3,18.3C60.8,22.6,59.5,30.9,52.2,33.1C52.2,33.1,50.1,38.1,42.8,42.8L42.8,50.4L17.9,50.3z" id="shape11"/><path stroke="#f89bad" fill="#f89bad" transform="translate(0,80.74)" d="M0,51C0,51,2.7,15,16.3,11C29.9,6.9,36.5,9.3,39.3,4.8C39.3,4.8,38.6,0,40.5,0C40.5,0,65.5,.1,65.5,.1C67.7,.1,66.4,4,66.7,4.8C68.8,9.2,79.4,7.4,89.7,11C103.2,14.8,106,51,106,51L65.5,51L0,51z" id="shape12"/><path stroke="#f7f5ec" fill="#f7f5ec" transform="translate(0,88.03)" d="M0,43.7C0,43.7,2.7,7.7,16.3,3.7C25.2,1,31.1,1.1,34.9,.3C39.8,20.9,52.8,44,52.8,44C52.8,44,65.1,24,70.2,0C74.6,1.4,82.2,1.1,89.7,3.7C103.2,7.5,106,43.7,106,43.7L65.5,43.7L0,43.7z" id="shape13"/><path fill="#eac3aa" transform="translate(40.53,73.22)" d="M0,7.5L0,0C0,0,7.5,4.8,12.7,4.8C17.8,4.8,24.9,.1,24.9,.1L24.9,7.6L0,7.5z" id="shape14"/><path stroke="#86561a" fill="#86561a" transform="translate(26.11,45.11)" d="M4,7.9L0,.5L1.7,.5L4.2,3.5L4,7.9zM23.1,6.5L30.7,6.5L30.7,4.6L23.1,4.6L23.1,6.5zM49.8,7.9L53.8,.5C53.8,.5,52.9,.6,52.3,0L49.6,3.5L49.8,7.9z" id="shape15"/><path stroke="#86561a" fill="#86561a" transform="translate(56.32,41.02)" d="M0,10C0,4.5,4.4,0,9.9,0C15.4,0,19.8,4.5,19.8,10C19.8,15.5,15.4,20,9.9,20C4.4,20,0,15.5,0,10zM1.1,10C1.1,14.9,5.1,18.9,9.9,18.9C14.8,18.9,18.7,14.9,18.7,10C18.7,5.1,14.8,1.1,9.9,1.1C5.1,1.1,1.1,5.1,1.1,10z" id="shape16"/><path stroke="#86561a" fill="#86561a" transform="translate(29.86,41.02)" d="M0,10C0,4.5,4.4,0,9.9,0C15.4,0,19.8,4.5,19.8,10C19.8,15.5,15.4,20,9.9,20C4.4,20,0,15.5,0,10zM1.1,10C1.1,14.9,5.1,18.9,9.9,18.9C14.8,18.9,18.7,14.9,18.7,10C18.7,5.1,14.8,1.1,9.9,1.1C5.1,1.1,1.1,5.1,1.1,10z" id="shape17"/></g><g transform="translate(904,118)"><path fill="#000000" fill-opacity="0.08" d="M2,2L114,2L114,134L2,134L2,2z"/><path stroke="#f2eada" fill="#f2eada" transform="translate(0,73.39)" d="M111.8,58.4C112.7,38.6,109.6,26.9,109.6,26.9C107.3,17,98.6,13.6,98.6,13.6C98.6,13.6,98.3,13.6,94.7,12C91.1,10.4,76.4,4.6,76.4,4.6C75.3,.9,70.7,0,70.7,0C70.7,0,68.9,8.8,56,8.5C43,8.3,41,0,41,0C35.5,2.2,35.3,4.6,35.3,4.6C35.3,4.6,31.3,6.8,26,8.5C20.8,10.3,8.8,13.9,4.5,21.6C.2,29.4,0,58.4,0,58.4L111.8,58.4z" id="shape18"/><path fill="#eac3aa" transform="translate(40.96,70.85)" d="M.5,.1C.5,.1,.7,1.3,0,2.5C0,2.5,2.9,17.6,15.9,17.6C15.9,17.6,27.4,14.3,29.7,2.5C29.7,2.5,29.4,1,29.4,0C29.4,0,16.1,13.1,.5,.1z" id="shape19"/><path stroke="#a86b3f" fill="#a86b3f" transform="translate(29.02,0)" d="M1.3,40.6C1.3,40.6,-2.2,22.9,2.3,14.8C6.8,6.6,14.3,0,27.8,0C41.4,0,49.7,8.5,52.1,14.8C54.4,21.1,55.9,33.4,54.1,40.1C52.3,46.9,50.1,54.4,46.6,53C43.1,51.6,45.7,34.9,43.5,30.5C41.2,26.1,35.3,24.7,30.4,26.4C25.5,28.1,12.7,29.2,10.8,30.7C8.9,32.2,7,34.4,7.4,38.6C7.7,42.9,8.5,51.5,5.9,50.9C3.3,50.3,1.3,42.8,1.3,40.6z" id="shape20"/><path fill="#fad1b6" transform="translate(26.79,23.76)" d="M29.9,56.2C29.9,56.2,21.2,54.6,14.6,47.2C8.1,39.8,7.3,32.6,7.3,32.6C7.3,32.6,4.6,32.7,3.4,29.2C2.2,25.7,-2.5,18.8,1.8,16.8C1.8,16.8,3.8,16.1,4.8,18.2C5.7,20.3,6.6,24.7,6.9,25.3C7.2,25.8,8.6,24.3,8.1,14.8C8.1,14.8,6.4,7.8,12.8,5.4C19.2,2.9,27.8,3.1,30.4,1.1C33,-1,42.6,2.1,44.7,0C44.7,0,48.3,1.9,48.8,7.9C49.4,13.9,49.6,24.8,50.9,25.7C52.2,26.5,51.9,20.4,52.9,18.3C53.9,16.2,57.4,15.2,57.9,18.7C58.3,22.3,55.4,29.5,54.3,30.8C53.2,32.1,51.4,34,50.1,32.7C50.1,32.7,49.2,40.7,43.2,47.7C37.1,54.8,32.1,56,29.9,56.2z" id="shape21"/><path stroke="#f7f5ec" fill="#f7f5ec" transform="translate(35.42,73.39)" d="M41.2,4.6C39.9,.9,35.3,0,35.3,0C35.3,0,33.6,8.8,20.7,8.5C7.7,8.3,5.6,0,5.6,0C.2,2.2,0,4.6,0,4.6C0,4.6,2.8,15.7,20.9,15.7C39,15.7,41.2,4.6,41.2,4.6z" id="shape22"/><path fill="#000000" transform="translate(50.36,38.65)" d="M9.9,0L23.3,0C24.4,0,25.3,.9,25.3,2L25.3,10.4C25.3,11.5,24.4,12.4,23.3,12.4L9.9,12.4C8.8,12.4,7.9,11.5,7.9,10.4L7.9,2C7.9,.9,8.8,0,9.9,0zM10.1,10.2L23.1,10.2L23.1,2.2L10.1,2.2L10.1,10.2zM.2,0zM0,2.2z" id="shape23"/><path fill="#000000" transform="translate(26.79,39.04)" d="M9.9,0L23.3,0C24.4,0,25.3,.9,25.3,2L25.3,10.4C25.3,11.5,24.4,12.4,23.3,12.4L9.9,12.4C8.8,12.4,7.9,11.5,7.9,10.4L7.9,2C7.9,.9,8.8,0,9.9,0zM10.1,10.2L23.1,10.2L23.1,2.2L10.1,2.2L10.1,10.2zM.2,0zM0,2.2z" id="shape24"/><path stroke="#000000" fill="#000000" transform="translate(14.02,38.02)" d="M44.3,93.8C24.4,93.8,4.2,93.7,4.2,93.7C4.2,93.7,-1.1,49.2,.2,48.5C4.6,46.3,9.2,44.8,12,43.9C17.3,42.2,21.3,40,21.3,40C21.3,40,21.5,63.8,44.3,93.8zM84.6,49C84.6,49,84.3,49,80.7,47.4C77,45.8,62.4,40,62.4,40C61.3,36.3,65.7,67.1,44.6,93.8C63.7,93.8,82.2,93.8,82.1,93.7C84.8,65.4,84.6,49,84.6,49zM44.6,93.8C44.5,93.8,44.4,93.8,44.3,93.8C44.3,93.8,44.4,94,44.4,94C44.5,94,44.5,93.8,44.6,93.8zM61.5,7.2L69.1,2.1L69.1,0L61.5,5.1L61.5,7.2zM16,2.5L22.3,7.2L22.3,5.1L16,.4L16,2.5zM37.8,7.2L46.2,7.2L46.2,5.1L37.8,5.1L37.8,7.2z" id="shape25"/></g><g transform="translate(58,260)"><path fill="#000000" fill-opacity="0.08" d="M2,2L138,2L138,134L2,134L2,2z"/><path stroke="#3a526b" fill="#3a526b" transform="translate(0,79.51)" d="M0,52.5C.7,42.5,2.1,31.5,4.7,26.8C9.9,17.2,24.6,12.7,31,10.6C37.5,8.4,42.4,5.8,42.4,5.8C42.4,5.8,42.6,2.8,49.3,0C49.3,0,55.2,13.3,68.9,18.4C68.9,18.4,84.6,8,85.7,0C85.7,0,91.4,1.1,92.8,5.7C92.8,5.7,110.7,12.9,115.1,14.9C119.6,16.8,120,16.8,120,16.8C120,16.8,130.6,21.1,133.4,33.3C133.4,33.3,135.2,40.2,136,52.5L0,52.5z" id="shape26"/><path stroke="#eac3aa" fill="#eac3aa" transform="translate(47.92,60.6)" d="M33.8,0C33.8,0,33.8,9.6,35.7,13.1C37.5,16.6,41.6,21.9,41.6,21.9C41.6,21.9,40.6,32.2,20.8,32.4C1.1,32.6,0,19.2,0,19.2C0,19.2,1.9,18.9,2.8,15.4C3.8,11.9,4.2,2,4.2,2L33.8,0z" id="shape27"/><path stroke="#fad1b6" fill="#fad1b6" transform="translate(36.11,9.07)" d="M4,36.3C3.3,37,-1.7,33.7,.6,41.7C3.3,51.5,7.9,49.5,8.4,50.6C12.1,58.5,21.5,71.5,31.7,71.5C44.6,71.5,54.4,50.6,54.4,50.6C54.4,50.6,61.4,49.8,61.4,38.6C60.9,34.6,56.5,38,56.7,35.9C57.5,29.2,57.7,26.2,57.1,22.2C55.6,12.4,51.4,4,41.4,1.3C31.4,-1.4,12,-1,6.6,13.7C1.2,28.4,4.6,35.6,4,36.3z" id="shape28"/><path stroke="#ffd900" fill="#ffd900" transform="translate(33.59,-0)" d="M4.1,34.1C4.1,34.1,6.8,18.1,13.6,10.3C20.5,2.5,26.8,2.8,26.8,2.8C26.8,2.8,27,0,30.8,0C34.5,0,38.4,.3,38.4,.3C38.4,.3,39.1,.2,39.9,.8C40.7,1.5,41.6,3.1,41.6,3.1C41.6,3.1,50.9,5.1,55.7,13.2C60.5,21.3,62.5,33,62.5,33C62.5,33,66.8,36.7,66.1,41.9C65.7,44.5,63.9,45.9,62.9,45.8C61.8,45.7,59.9,46.3,59.4,45.7C58.8,45.2,59.6,41,59.8,39.2C60.1,37.4,57.3,33,57.3,33C57.3,33,52.7,30.5,40.8,28.9C29,27.3,12,31.8,11.9,31.9C11.9,31.9,7.4,35.1,6.3,36.3C5.1,37.5,6.6,45.5,6.6,45.5C6.6,45.5,5.1,44.8,3.7,45.2C2.2,45.6,2.4,46.5,2.3,47.2C2.3,47.2,.3,45.3,0,40.8C-0.1,36.3,4.1,34.1,4.1,34.1z" id="shape29"/><path stroke="#f1a500" fill="#f1a500" transform="translate(39.31,27.91)" d="M.2,8.4C.2,8.4,-0.3,10.2,.2,13C.7,15.8,1,17.3,1,17.3C1,17.3,.4,12.6,2.9,11.4C5.4,10.2,6,9.5,6,9.5L7.2,5.7C7.2,5.7,7.7,6.7,10.4,5.7C13.1,4.6,19.3,2.1,24.7,2.9C30,3.7,32.8,3.3,34.9,3C37,2.7,43.6,3.8,46.2,4.8C48.9,5.8,49.6,6.8,51.7,9.4C53.9,12,53.4,17.5,53.4,17.5C53.5,17.5,54.8,12.6,54.4,10.2C54,7.8,52.9,5,49.6,3.5C46.2,2,33.5,-0.4,25.2,.1C16.9,.6,10.8,2.4,7.1,3.2C3.3,4,.2,8.4,.2,8.4z" id="shape30"/><path stroke="#dddddd" fill="#dddddd" transform="translate(67.88,72.55)" d="M15.2,0L20.9,10C20.9,10,22.8,13.1,21.3,16.1C19.7,19.1,20.4,18.4,20.4,18.4C20.4,18.4,18.5,28.1,17.5,29.1C16.5,30.2,16.3,29.6,16.3,29.6L0,16.5C0,16.5,5,16.3,9.6,11.4C14.1,6.6,15.2,0,15.2,0z" id="shape31"/><path stroke="#dddddd" fill="#dddddd" transform="translate(46.82,72.72)" d="M4.5,0L0,13L6.4,29.6C6.4,29.6,12.1,23.5,13.4,22.5C14.8,21.4,20.7,16.3,20.6,16.2C20.6,16.2,17.8,15.5,12,10.8C6.2,6.1,4.5,0,4.5,0z" id="shape32"/><path stroke="#466280" fill="#da833d" transform="translate(84.96,77.2)" d="M.9,0C.9,0,4.4,2.6,6,3.8C7.5,5,9.6,7.7,11.5,9C13.5,10.2,15.2,12.9,17,14.5C18.9,16.1,20.2,16.9,20.2,16.9L13.2,18.3L20.7,24.4C20.7,24.4,13.6,46.9,12.9,48.6C12.2,50.3,11.3,54.4,11.3,54.4L0,54.7C0,54.7,3.1,32.7,3.5,25.2C3.8,17.8,1.2,0,.9,0z" id="shape33"/><path stroke="#c9c9c9" fill="#c9c9c9" transform="translate(44.93,87.43)" d="M4.1,44.5L40.3,44.5C40.3,44.5,42.2,27.3,43.1,21C44.1,14.7,43,5.9,43,5.9C43,5.9,40.7,13.4,40.1,14.3C39.6,15.1,23,1.3,23,1.3L8,14.3L2.4,0C2.4,0,-1.1,10.4,.3,22.7C1.7,35.1,4.1,44.1,4.1,44.5z" id="shape34"/><path stroke="#838383" fill="#838383" transform="translate(57.73,88.45)" d="M12.2,14.3C12.2,14.3,13.9,9.9,15.3,9.6C16.7,9.3,21.7,9.6,21.7,9.6L10.2,0L0,8.8L6,14.2L12.2,14.3z" id="shape35"/><path stroke="#838383" fill="#838383" transform="translate(60,102.37)" d="M3.5,0C3.5,0,4.7,2,2.4,6.5C.2,11,0,29.4,0,29.4L16,29.4C16,29.4,15.1,15.4,14.3,12.4C13.5,9.5,9.9,.4,9.9,.4L3.5,0z" id="shape36"/><path stroke="#466280" fill="#da833d" transform="translate(28.92,78.04)" d="M20.6,0C20.6,0,20.7,.2,17.5,2.1C14.3,4.1,13.9,7.9,10.6,9.1C7.3,10.3,3,15.7,3,15.7L6.9,17.7L0,24C0,24,1,31.3,3,41.3C5.1,51.3,6.1,53.9,6.1,53.9L19.4,53.7C19.4,53.7,17,43.9,16.4,30.2C15.8,16.5,20,0,20.6,0z" id="shape37"/></g><g transform="translate(73,57)"><path fill="#000000" fill-opacity="0.08" d="M2,2L108,2L108,134L2,134L2,2z"/><path stroke="#3a526b" fill="#3a526b" transform="translate(0,75.65)" d="M105.8,56.4C106.7,37.5,103.7,26.3,103.7,26.3C101.6,16.9,93.4,13.6,93.4,13.6C93.4,13.6,93.1,13.6,89.6,12.1C86.2,10.6,72.4,5.1,72.4,5.1C68.1,2.7,66.9,.7,66.9,.7C66,6.8,53.9,14.8,53.9,14.8C43.4,12.1,40,0,40,0C36.4,4.2,33.4,5.1,33.4,5.1C33.4,5.1,29.6,7.2,24.6,8.8C19.7,10.4,8.3,13.9,4.2,21.3C.2,28.7,0,56.4,0,56.4L105.8,56.4z" id="shape38"/><path stroke="#ffd900" fill="#ffd900" transform="translate(24.76,0)" d="M3.4,29.4C3.4,29.4,4.7,12.9,12.3,7.5C19.8,2,23.1,2,23.1,2C23.1,2,23.3,0,26.5,0C29.8,0,33.1,.2,33.1,.2C33.1,.2,33.7,.2,34.4,.7C35.1,1.3,35.8,2.6,35.8,2.6C35.8,2.6,43.8,4.4,48,11.3C52.2,18.3,53.9,28.4,53.9,28.4C53.9,28.4,57.6,31.6,57,36.1C56.4,40.6,51,41.2,51,41.2C51,41.2,51.9,35.4,51.6,33.7C51.3,32,49.4,28.4,49.4,28.4C49.4,28.4,45.4,26.3,35.2,24.9C25,23.5,10.2,27.4,10.2,27.4C10.2,27.4,6.3,30.2,5.3,31.2C4.3,32.3,5.6,39.2,5.6,39.2C5.6,39.2,5.9,38.9,4.7,39.2C3.4,39.5,3.3,40.6,2.9,41C2.9,41,.2,39,0,35.1C-0.1,31.2,3.4,29.4,3.4,29.4z" id="shape39"/><path stroke="#fad1b6" fill="#fad1b6" transform="translate(27.31,28.24)" d="M3.9,11.5C3.9,11.5,1,9.4,.2,13.2C-0.7,17,2.2,23.2,2.5,24C2.9,24.8,4.7,27.6,5.5,27.9C6.3,28.1,8.2,27.9,8.2,27.9C8.2,27.9,7.7,33.8,11.8,39.6C16,45.5,23.2,48.1,25.2,48.6C27.1,49.1,31.8,47.8,36.2,43.2C40.5,38.6,41.8,36.8,42.6,32.9C43.5,28.9,43.7,28.5,43.7,28.5C43.7,28.5,45.1,29.1,46.6,27.9C48.2,26.6,47.8,24.8,49.5,21.5C51,18.2,51.7,13.4,50.2,12.7C48.7,12.1,47.4,13.9,47.4,13.9L45.5,18.7C45.5,18.7,45.5,10.7,44.8,10C44.1,9.3,43.6,8.6,43.9,7.5C44.1,6.4,44.7,3.5,42.6,2.4C40.6,1.2,28.3,-0.3,24,.1C19.7,.5,13.7,1.7,11.8,2.4C10,3.1,9.3,3.4,9.3,3.5C9.3,3.5,10.8,6.3,9.6,7.7C8.4,9.1,7.9,11,7.9,12.3C7.9,13.7,7.7,17.1,7.1,17.9C6.6,18.7,3.9,11.5,3.9,11.5z" id="shape40"/><path stroke="#eac3aa" fill="#eac3aa" transform="translate(40,68.56)" d="M26,0L26.4,9.5C26.4,9.5,21.4,17.5,18.1,20.6C14.7,23.7,12.7,24.8,12.7,24.8C12.7,24.8,2.5,17.2,.9,12.2C-0.8,7.3,.4,.7,.4,.7C.4,.7,2.4,3.5,8,6.5C13.6,9.5,15.4,7.9,17.6,7.1C19.8,6.4,26,0,26,0z" id="shape41"/><path stroke="#da833d" fill="#da833d" transform="translate(52.75,73.6)" d="M13.4,0L19.5,7.3L17.3,34.9L0,19.3C0,19.3,10,10.8,11.4,7.7C12.9,4.6,13.4,0,13.4,0z" id="shape42"/><path stroke="#da833d" fill="#da833d" transform="translate(33.79,74.49)" d="M6.2,0L0,5.6L4.8,33.3L19,18.4C19,18.4,9.7,11.5,7.8,7.7C5.8,3.9,6.6,-0.3,6.2,0z" id="shape43"/><path stroke="#454545" fill="#454545" transform="translate(30.4,26.4)" d="M4.4,5.8C4.4,5.8,.9,7.7,.4,8.8C-0,9.9,0,12.6,0,12.6C0,12.6,3.6,23.1,4.4,18.8C5.2,14.6,4.5,12.5,6.2,10.6C7.9,8.7,6.1,5.9,7.2,5C8.4,4.2,17.1,1.7,23.8,1.9C30.5,2.1,40.7,3,40.9,5.8C41,8.7,40.3,10.8,40.9,11.1C41.4,11.5,41.9,11.6,42.2,15.1C42.5,18.5,42.4,20.3,42.4,20.3L44.5,15.4L45.6,14.5L45.9,9.3C45.9,9.3,45.5,8.3,44.7,6.4C44,4.5,43.6,3.4,43.6,3.4C43.6,3.4,38.4,1.4,36.3,.9C34.1,.5,29.5,.1,27.2,.5C25,.9,19.8,0,19.6,0C19.4,0,14.9,-0.2,10.5,1.6C6,3.4,6.2,3,6.2,3L5.2,2.6L4.4,5.8z" id="shape44"/><path stroke="#f1a500" fill="#f1a500" transform="translate(29.56,24.01)" d="M.2,7.2C.2,7.2,-0.2,8.8,.2,11.2C.6,13.7,.8,14.9,.8,14.9C.8,14.9,.4,10.9,2.5,9.8C4.6,8.8,5.2,8.2,5.2,8.2L6.2,4.9C6.2,4.9,6.6,5.8,9,4.9C11.3,4,16.7,1.9,21.3,2.5C25.9,3.1,28.3,2.8,30.2,2.6C32,2.4,37.7,3.2,40,4.1C42.2,5,44.1,6.1,44.1,6.1L46.9,11.9C46.9,11.9,46.4,7.9,46.3,7.2C46.2,6.4,45.7,4.3,42.9,3C40,1.7,28.9,-0.4,21.8,.1C14.6,.5,9.4,2.1,6.1,2.8C2.9,3.5,.2,7.2,.2,7.2z" id="shape45"/></g><g transform="translate(65,510)"><path fill="#000000" fill-opacity="0.08" d="M2,2L124,2L124,134L2,134L2,2z"/><path fill="#eac3aa" transform="translate(46.96,73.14)" d="M.7,0L.7,8.3C.7,8.3,-5,21.4,15.2,21.9C15.2,21.9,30.7,23.6,27.7,8.3L27.7,0L.7,0z" id="shape46"/><path stroke="#f7f5ec" fill="#f7f5ec" transform="translate(10.48,79.32)" d="M101.4,52.7C102.3,34.8,99.4,24.3,99.4,24.3C97.4,15.4,89.5,12.3,89.5,12.3C89.5,12.3,89.2,12.3,85.9,10.8C82.6,9.4,69.3,4.2,69.3,4.2C66.5,2.8,64.1,0,64.1,0C64.1,0,67.2,13.9,50.7,13.5C34.1,13.1,37.2,0,37.2,0C36.7,1.7,32,4.2,32,4.2C32,4.2,28.4,6.2,23.6,7.7C18.8,9.3,8,12.5,4.1,19.5C.2,26.6,0,52.7,0,52.7L101.4,52.7z" id="shape47"/><path fill="#fad1b6" transform="translate(27.97,18.4)" d="M8.2,22.1C8.2,22.1,2.9,17.5,.9,22.1C-1.1,26.8,.2,37.4,5.5,36.6C5.5,36.6,6.9,36,7.3,38.4C7.3,38.4,8.1,58,33.6,58C59.1,58,61.4,37.3,61.4,37.3C61.4,37.3,61.4,35.9,63.3,35.9C65.3,35.9,66.5,32.8,66.5,30.5C66.5,30.5,68.3,7.8,57.3,2.6C46.3,-2.6,51.6,.3,40.7,8.5C29.8,16.6,23.4,20.1,13.1,15.5C13.1,15.5,6.9,13.3,8.2,22.1z" id="shape48"/><path stroke="#f99e1c" fill="#f99e1c" d="M2,47.1C5,47,8.8,49.2,11,43C13.1,36.8,9.1,16.2,23.7,11.4C23.7,11.4,32.5,8.8,39.3,12.5C39.3,12.5,42.7,0,62.5,0C82.2,0,83.2,12.1,83.2,12.1C83.2,12.1,93.6,7.1,101,14C108.5,20.9,107.2,34.1,109.1,41.7C109.1,41.7,109.8,46,118.7,45.1C118.7,45.1,123.6,44.8,121.5,50.8C119.4,56.9,110.6,59.6,103.7,57.5C96.7,55.4,92.3,46.5,92,43.5C91.6,40.5,89.9,23.4,80.8,19.4C80.8,19.4,74.2,36.9,47.4,40.4C47.4,40.4,42.5,41,35.8,40.2C35.8,40.2,32.6,51.8,23.5,56.6C23.5,56.6,8.4,63,1.6,52.9C1.6,52.9,-2.3,47.1,2,47.1z" id="shape49"/><path stroke="#353535" fill="#353535" transform="translate(56.66,43.77)" d="M0,0L11.1,0L11.1,1.2L0,1.2L0,0z" id="shape50"/><path stroke="#353535" fill="#353535" transform="translate(67.26,39.11)" d="M.6,0L19.6,0C20,0,20.2,.3,20.2,.6L20.2,12.9C20.2,13.3,20,13.6,19.6,13.6L.6,13.6C.3,13.6,0,13.3,0,12.9L0,.6C0,.3,.3,0,.6,0zM2.2,1.5C1.9,1.5,1.6,1.8,1.6,2.2L1.6,11.4C1.6,11.7,1.9,12,2.2,12L18,12C18.4,12,18.7,11.7,18.7,11.4L18.7,2.2C18.7,1.8,18.4,1.5,18,1.5L2.2,1.5z" id="shape51"/><path stroke="#353535" fill="#353535" transform="translate(36.84,39.11)" d="M.6,0L19.6,0C20,0,20.2,.3,20.2,.6L20.2,12.9C20.2,13.3,20,13.6,19.6,13.6L.6,13.6C.3,13.6,0,13.3,0,12.9L0,.6C0,.3,.3,0,.6,0zM2.2,1.5C1.9,1.5,1.6,1.8,1.6,2.2L1.6,11.4C1.6,11.7,1.9,12,2.2,12L18,12C18.4,12,18.7,11.7,18.7,11.4L18.7,2.2C18.7,1.8,18.4,1.5,18,1.5L2.2,1.5z" id="shape52"/><path stroke="#ffcd55" fill="#ffcd55" transform="translate(28.37,85.77)" d="M63.3,46.2C61.8,4.5,68,4.2,67.1,3.9C66,3.5,59.5,1.4,57.4,.3C56.3,-0.3,48.9,28.5,33,28.1C17.1,27.7,11.6,-0.9,8,0C7.3,.7,6.5,1,5.7,1.3C4.3,1.7,2.2,2.4,0,3.2C7,19.2,3.6,46.1,3.6,46.1L63.3,46.2z" id="shape53"/></g><g transform="translate(85,194)" id="shape54"><text class="st1"><tspan x="14" y="17.5">Рабочий</tspan></text></g><g transform="translate(77.5,402.78)" id="shape55"><text class="st1"><tspan x="19" y="25.7">Бригадир</tspan></text></g><g transform="translate(80.5,642)" id="shape56"><text class="st1"><tspan x="13" y="25">Диспетчер</tspan></text></g><g transform="translate(902,709)" id="shape57"><text class="st1"><tspan x="17" y="15">Бухгалтерия</tspan></text></g><g transform="translate(907,482)" id="shape58"><text class="st1"><tspan x="20" y="12.5">Начальник </tspan><tspan x="38" y="27.5">цеха</tspan></text></g><g transform="translate(902,269)" id="shape59"><text class="st1"><tspan x="31" y="10">Отдел по </tspan><tspan x="22" y="25">контролю за </tspan><tspan x="28" y="40">качеством</tspan></text></g><g transform="translate(250,148)" id="shape60"><text class="st1"><tspan x="4" class="st2" y="21">Пометка о незанетости в </tspan><tspan x="4" class="st2" y="35">данный момент</tspan></text></g><g transform="translate(250,82)" id="shape61"><text class="st1"><tspan x="4" class="st2" y="21">Фиксация данных о </tspan><tspan x="4" class="st2" y="35">проделанной работе</tspan></text></g><g transform="translate(266.39,365.85)" id="shape62"><text class="st1"><tspan x="4" class="st2" y="21">Информация о каждом </tspan><tspan x="4" class="st2" y="35">рабочем бригады</tspan></text></g><g transform="translate(266.39,314)" id="shape63"><text class="st1"><tspan x="4" class="st2" y="21">Назначение работы </tspan><tspan x="4" class="st2" y="35">работнику бригады</tspan></text></g><g transform="translate(241,605)" id="shape64"><text class="st1"><tspan x="4" class="st2" y="21">Информация о ремонтных </tspan><tspan x="4" class="st2" y="35">зонах</tspan></text></g><g transform="translate(241,553)" id="shape65"><text class="st1"><tspan x="4" class="st2" y="21">Отправка автомобиля в </tspan><tspan x="4" class="st2" y="35">свободную зону</tspan></text></g><g transform="translate(652,200)" id="shape66"><text class="st1"><tspan x="4" class="st2" y="21">Информация о каждом </tspan><tspan x="4" class="st2" y="35">участке конвеера</tspan></text></g><g transform="translate(690.13,355.85)" id="shape67"><text class="st1"><tspan x="4" class="st2" y="28">Информация о всей системе</tspan></text></g><g transform="translate(581,616)" id="shape68"><text class="st1"><tspan x="4" class="st2" y="14">Информация по каждому </tspan><tspan x="4" class="st2" y="28">ремотнику всех ремонтных </tspan><tspan x="4" class="st2" y="42">бригад</tspan></text></g></g></svg>